<svg width="24" height="12" viewBox="0 0 24 12" fill="none" xmlns="http://www.w3.org/2000/svg">
<path d="M2.43327 1.227C1.7495 0.759304 0.816041 0.934467 0.348341 1.61824C-0.119358 2.30202 0.0558053 3.23547 0.73958 3.70317L2.43327 1.227ZM12.0204 9.6019L11.1736 10.84C11.7009 11.2007 12.3988 11.1878 12.9125 10.8078L12.0204 9.6019ZM22.5603 3.67101C23.2264 3.17834 23.3669 2.23904 22.8742 1.57303C22.3815 0.907024 21.4422 0.766501 20.7762 1.25917L22.5603 3.67101ZM0.73958 3.70317L11.1736 10.84L12.8673 8.36382L2.43327 1.227L0.73958 3.70317ZM12.9125 10.8078L22.5603 3.67101L20.7762 1.25917L11.1284 8.39598L12.9125 10.8078Z" fill="black"/>
</svg>
