<svg width="24" height="11" viewBox="0 0 24 11" fill="none" xmlns="http://www.w3.org/2000/svg">
<path d="M2.81413 1.02534C2.13036 0.557644 1.1969 0.732807 0.729201 1.41658C0.261501 2.10036 0.436665 3.03381 1.12044 3.50151L2.81413 1.02534ZM12.4013 9.40024L11.5544 10.6383C12.0818 10.999 12.7797 10.9861 13.2933 10.6062L12.4013 9.40024ZM22.9412 3.46935C23.6072 2.97668 23.7477 2.03738 23.2551 1.37137C22.7624 0.705364 21.8231 0.564841 21.1571 1.05751L22.9412 3.46935ZM1.12044 3.50151L11.5544 10.6383L13.2481 8.16216L2.81413 1.02534L1.12044 3.50151ZM13.2933 10.6062L22.9412 3.46935L21.1571 1.05751L11.5092 8.19432L13.2933 10.6062Z" fill="black"/>
</svg>
