<svg width="24" height="11" viewBox="0 0 24 11" fill="none" xmlns="http://www.w3.org/2000/svg">
<path d="M2.39616 0.514479C1.71239 0.0467793 0.778932 0.221943 0.311232 0.905718C-0.156468 1.58949 0.018696 2.52295 0.702471 2.99065L2.39616 0.514479ZM11.9833 8.88938L11.1365 10.1275C11.6638 10.4882 12.3617 10.4752 12.8754 10.0953L11.9833 8.88938ZM22.5232 2.95848C23.1892 2.46581 23.3298 1.52652 22.8371 0.86051C22.3444 0.194499 21.4051 0.053977 20.7391 0.546645L22.5232 2.95848ZM0.702471 2.99065L11.1365 10.1275L12.8302 7.65129L2.39616 0.514479L0.702471 2.99065ZM12.8754 10.0953L22.5232 2.95848L20.7391 0.546645L11.0913 7.68346L12.8754 10.0953Z" fill="black"/>
</svg>
