<svg width="24" height="11" viewBox="0 0 24 11" fill="none" xmlns="http://www.w3.org/2000/svg">
<path d="M2.81413 0.556837C2.13036 0.0891377 1.1969 0.264301 0.729201 0.948077C0.261501 1.63185 0.436665 2.56531 1.12044 3.03301L2.81413 0.556837ZM12.4013 8.93174L11.5544 10.1698C12.0818 10.5305 12.7797 10.5176 13.2933 10.1377L12.4013 8.93174ZM22.9412 3.00084C23.6072 2.50817 23.7477 1.56888 23.2551 0.902868C22.7624 0.236858 21.8231 0.0963354 21.1571 0.589003L22.9412 3.00084ZM1.12044 3.03301L11.5544 10.1698L13.2481 7.69365L2.81413 0.556837L1.12044 3.03301ZM13.2933 10.1377L22.9412 3.00084L21.1571 0.589003L11.5092 7.72582L13.2933 10.1377Z" fill="black"/>
</svg>
