<svg width="24" height="11" viewBox="0 0 24 11" fill="none" xmlns="http://www.w3.org/2000/svg">
<path d="M2.43327 0.758498C1.7495 0.290798 0.816041 0.465962 0.348341 1.14974C-0.119358 1.83351 0.0558053 2.76697 0.73958 3.23467L2.43327 0.758498ZM12.0204 9.1334L11.1736 10.3715C11.7009 10.7322 12.3988 10.7193 12.9125 10.3393L12.0204 9.1334ZM22.5603 3.2025C23.2264 2.70983 23.3669 1.77054 22.8742 1.10453C22.3815 0.438518 21.4422 0.297996 20.7762 0.790663L22.5603 3.2025ZM0.73958 3.23467L11.1736 10.3715L12.8673 7.89531L2.43327 0.758498L0.73958 3.23467ZM12.9125 10.3393L22.5603 3.2025L20.7762 0.790663L11.1284 7.92748L12.9125 10.3393Z" fill="black"/>
</svg>
