<svg width="24" height="11" viewBox="0 0 24 11" fill="none" xmlns="http://www.w3.org/2000/svg">
<path d="M3.21892 0.445509C2.53514 -0.0221905 1.60169 0.152973 1.13399 0.836748C0.666286 1.52052 0.84145 2.45398 1.52522 2.92168L3.21892 0.445509ZM12.8061 8.82041L11.9592 10.0585C12.4866 10.4192 13.1845 10.4063 13.6981 10.0263L12.8061 8.82041ZM23.346 2.88951C24.012 2.39684 24.1525 1.45755 23.6599 0.79154C23.1672 0.12553 22.2279 -0.0149927 21.5619 0.477675L23.346 2.88951ZM1.52522 2.92168L11.9592 10.0585L13.6529 7.58232L3.21892 0.445509L1.52522 2.92168ZM13.6981 10.0263L23.346 2.88951L21.5619 0.477675L11.914 7.61449L13.6981 10.0263Z" fill="black"/>
</svg>
