<svg width="24" height="11" viewBox="0 0 24 11" fill="none" xmlns="http://www.w3.org/2000/svg">
<path d="M21.1737 10.1799C21.8574 10.6476 22.7909 10.4725 23.2586 9.78868C23.7263 9.1049 23.5511 8.17145 22.8674 7.70375L21.1737 10.1799ZM11.5865 1.80502L12.4334 0.566935C11.906 0.206241 11.2081 0.219151 10.6945 0.5991L11.5865 1.80502ZM1.04659 7.73591C0.380583 8.22858 0.240059 9.16787 0.732727 9.83389C1.2254 10.4999 2.16469 10.6404 2.8307 10.1478L1.04659 7.73591ZM22.8674 7.70375L12.4334 0.566935L10.7397 3.0431L21.1737 10.1799L22.8674 7.70375ZM10.6945 0.5991L1.04659 7.73591L2.8307 10.1478L12.4786 3.01094L10.6945 0.5991Z" fill="#FFDE17"/>
</svg>
