<svg width="24" height="12" viewBox="0 0 24 12" fill="none" xmlns="http://www.w3.org/2000/svg">
<path d="M20.9405 10.8617C21.6243 11.3294 22.5577 11.1543 23.0254 10.4705C23.4931 9.78673 23.318 8.85327 22.6342 8.38557L20.9405 10.8617ZM11.3534 2.48684L12.2002 1.24876C11.6729 0.888064 10.9749 0.900974 10.4613 1.28092L11.3534 2.48684ZM0.813439 8.41774C0.147429 8.9104 0.00690458 9.8497 0.499573 10.5157C0.992241 11.1817 1.93154 11.3222 2.59755 10.8296L0.813439 8.41774ZM22.6342 8.38557L12.2002 1.24876L10.5065 3.72493L20.9405 10.8617L22.6342 8.38557ZM10.4613 1.28092L0.813439 8.41774L2.59755 10.8296L12.2454 3.69276L10.4613 1.28092Z" fill="#FFDE17"/>
</svg>
