<svg width="24" height="11" viewBox="0 0 24 11" fill="none" xmlns="http://www.w3.org/2000/svg">
<path d="M2.43327 0.290114C1.7495 -0.177586 0.816041 -0.00242221 0.348341 0.681353C-0.119358 1.36513 0.0558053 2.29858 0.73958 2.76628L2.43327 0.290114ZM12.0204 8.66501L11.1736 9.9031C11.7009 10.2638 12.3988 10.2509 12.9125 9.87093L12.0204 8.66501ZM22.5603 2.73412C23.2264 2.24145 23.3669 1.30216 22.8742 0.636145C22.3815 -0.029866 21.4422 -0.170388 20.7762 0.322279L22.5603 2.73412ZM0.73958 2.76628L11.1736 9.9031L12.8673 7.42693L2.43327 0.290114L0.73958 2.76628ZM12.9125 9.87093L22.5603 2.73412L20.7762 0.322279L11.1284 7.45909L12.9125 9.87093Z" fill="black"/>
</svg>
