<svg width="24" height="11" viewBox="0 0 24 11" fill="none" xmlns="http://www.w3.org/2000/svg">
<path d="M3.21892 0.976759C2.53514 0.50906 1.60169 0.684223 1.13399 1.368C0.666286 2.05177 0.84145 2.98523 1.52522 3.45293L3.21892 0.976759ZM12.8061 9.35166L11.9592 10.5897C12.4866 10.9504 13.1845 10.9375 13.6981 10.5576L12.8061 9.35166ZM23.346 3.42076C24.012 2.92809 24.1525 1.9888 23.6599 1.32279C23.1672 0.65678 22.2279 0.516257 21.5619 1.00892L23.346 3.42076ZM1.52522 3.45293L11.9592 10.5897L13.6529 8.11357L3.21892 0.976759L1.52522 3.45293ZM13.6981 10.5576L23.346 3.42076L21.5619 1.00892L11.914 8.14574L13.6981 10.5576Z" fill="black"/>
</svg>
