<svg width="24" height="11" viewBox="0 0 24 11" fill="none" xmlns="http://www.w3.org/2000/svg">
<path d="M2.81413 1.08833C2.13036 0.620632 1.1969 0.795796 0.729201 1.47957C0.261501 2.16335 0.436665 3.0968 1.12044 3.5645L2.81413 1.08833ZM12.4013 9.46323L11.5544 10.7013C12.0818 11.062 12.7797 11.0491 13.2933 10.6691L12.4013 9.46323ZM22.9412 3.53233C23.6072 3.03967 23.7477 2.10037 23.2551 1.43436C22.7624 0.768352 21.8231 0.62783 21.1571 1.1205L22.9412 3.53233ZM1.12044 3.5645L11.5544 10.7013L13.2481 8.22514L2.81413 1.08833L1.12044 3.5645ZM13.2933 10.6691L22.9412 3.53233L21.1571 1.1205L11.5092 8.25731L13.2933 10.6691Z" fill="black"/>
</svg>
