<svg width="24" height="11" viewBox="0 0 24 11" fill="none" xmlns="http://www.w3.org/2000/svg">
<path d="M3.05241 0.866957C2.36864 0.399257 1.43518 0.574421 0.967482 1.2582C0.499782 1.94197 0.674946 2.87543 1.35872 3.34313L3.05241 0.866957ZM12.6396 9.24185L11.7927 10.4799C12.32 10.8406 13.018 10.8277 13.5316 10.4478L12.6396 9.24185ZM23.1795 3.31096C23.8455 2.81829 23.986 1.879 23.4933 1.21299C23.0007 0.546977 22.0614 0.406455 21.3954 0.899123L23.1795 3.31096ZM1.35872 3.34313L11.7927 10.4799L13.4864 8.00377L3.05241 0.866957L1.35872 3.34313ZM13.5316 10.4478L23.1795 3.31096L21.3954 0.899123L11.7475 8.03594L13.5316 10.4478Z" fill="black"/>
</svg>
