<svg width="24" height="11" viewBox="0 0 24 11" fill="none" xmlns="http://www.w3.org/2000/svg">
<path d="M3.21892 0.913283C2.53514 0.445583 1.60169 0.620747 1.13399 1.30452C0.666286 1.9883 0.84145 2.92175 1.52522 3.38945L3.21892 0.913283ZM12.8061 9.28818L11.9592 10.5263C12.4866 10.887 13.1845 10.874 13.6981 10.4941L12.8061 9.28818ZM23.346 3.35729C24.012 2.86462 24.1525 1.92532 23.6599 1.25931C23.1672 0.593303 22.2279 0.452781 21.5619 0.945448L23.346 3.35729ZM1.52522 3.38945L11.9592 10.5263L13.6529 8.0501L3.21892 0.913283L1.52522 3.38945ZM13.6981 10.4941L23.346 3.35729L21.5619 0.945448L11.914 8.08226L13.6981 10.4941Z" fill="black"/>
</svg>
