<svg width="25" height="12" viewBox="0 0 25 12" fill="none" xmlns="http://www.w3.org/2000/svg">
<path d="M3.3405 1.2021C2.65672 0.734401 1.72327 0.909565 1.25557 1.59334C0.787868 2.27712 0.963032 3.21057 1.64681 3.67827L3.3405 1.2021ZM12.9276 9.577L12.0808 10.8151C12.6081 11.1758 13.3061 11.1629 13.8197 10.7829L12.9276 9.577ZM23.4676 3.6461C24.1336 3.15344 24.2741 2.21414 23.7814 1.54813C23.2888 0.882121 22.3495 0.741599 21.6835 1.23427L23.4676 3.6461ZM1.64681 3.67827L12.0808 10.8151L13.7745 8.33891L3.3405 1.2021L1.64681 3.67827ZM13.8197 10.7829L23.4676 3.6461L21.6835 1.23427L12.0356 8.37108L13.8197 10.7829Z" fill="black"/>
</svg>
