<svg width="24" height="11" viewBox="0 0 24 11" fill="none" xmlns="http://www.w3.org/2000/svg">
<path d="M2.81413 0.493605C2.13036 0.0259053 1.1969 0.201069 0.729201 0.884844C0.261501 1.56862 0.436665 2.50207 1.12044 2.96977L2.81413 0.493605ZM12.4013 8.8685L11.5544 10.1066C12.0818 10.4673 12.7797 10.4544 13.2933 10.0744L12.4013 8.8685ZM22.9412 2.93761C23.6072 2.44494 23.7477 1.50565 23.2551 0.839636C22.7624 0.173625 21.8231 0.033103 21.1571 0.525771L22.9412 2.93761ZM1.12044 2.96977L11.5544 10.1066L13.2481 7.63042L2.81413 0.493605L1.12044 2.96977ZM13.2933 10.0744L22.9412 2.93761L21.1571 0.525771L11.5092 7.66258L13.2933 10.0744Z" fill="black"/>
</svg>
