<svg width="24" height="11" viewBox="0 0 24 11" fill="none" xmlns="http://www.w3.org/2000/svg">
<path d="M21.3221 10.5259C22.0059 10.9936 22.9393 10.8185 23.407 10.1347C23.8747 9.45091 23.6996 8.51746 23.0158 8.04976L21.3221 10.5259ZM11.735 2.15103L12.5818 0.912943C12.0545 0.552249 11.3565 0.565159 10.8429 0.945108L11.735 2.15103ZM1.19503 8.08192C0.52902 8.57459 0.388496 9.51388 0.881164 10.1799C1.37383 10.8459 2.31313 10.9864 2.97914 10.4938L1.19503 8.08192ZM23.0158 8.04976L12.5818 0.912943L10.8881 3.38911L21.3221 10.5259L23.0158 8.04976ZM10.8429 0.945108L1.19503 8.08192L2.97914 10.4938L12.627 3.35695L10.8429 0.945108Z" fill="#FFDE17"/>
</svg>
