<svg width="24" height="11" viewBox="0 0 24 11" fill="none" xmlns="http://www.w3.org/2000/svg">
<path d="M2.81511 0.416457C2.13133 -0.0512432 1.19788 0.123921 0.730177 0.807696C0.262478 1.49147 0.437641 2.42493 1.12142 2.89263L2.81511 0.416457ZM12.4023 8.79135L11.5554 10.0294C12.0827 10.3901 12.7807 10.3772 13.2943 9.99727L12.4023 8.79135ZM22.9422 2.86046C23.6082 2.36779 23.7487 1.4285 23.256 0.762487C22.7634 0.0964768 21.8241 -0.0440454 21.1581 0.448622L22.9422 2.86046ZM1.12142 2.89263L11.5554 10.0294L13.2491 7.55327L2.81511 0.416457L1.12142 2.89263ZM13.2943 9.99727L22.9422 2.86046L21.1581 0.448622L11.5102 7.58544L13.2943 9.99727Z" fill="black"/>
</svg>
