<svg width="25" height="11" viewBox="0 0 25 11" fill="none" xmlns="http://www.w3.org/2000/svg">
<path d="M3.3405 0.734328C2.65672 0.266628 1.72327 0.441792 1.25557 1.12557C0.787868 1.80934 0.963032 2.7428 1.64681 3.2105L3.3405 0.734328ZM12.9276 9.10923L12.0808 10.3473C12.6081 10.708 13.3061 10.6951 13.8197 10.3151L12.9276 9.10923ZM23.4676 3.17833C24.1336 2.68566 24.2741 1.74637 23.7814 1.08036C23.2888 0.414348 22.3495 0.273826 21.6835 0.766493L23.4676 3.17833ZM1.64681 3.2105L12.0808 10.3473L13.7745 7.87114L3.3405 0.734328L1.64681 3.2105ZM13.8197 10.3151L23.4676 3.17833L21.6835 0.766493L12.0356 7.90331L13.8197 10.3151Z" fill="black"/>
</svg>
