<svg width="24" height="11" viewBox="0 0 24 11" fill="none" xmlns="http://www.w3.org/2000/svg">
<path d="M2.84636 0.541701C2.16258 0.074001 1.22913 0.249165 0.761427 0.93294C0.293728 1.61671 0.468891 2.55017 1.15267 3.01787L2.84636 0.541701ZM12.4335 8.9166L11.5867 10.1547C12.114 10.5154 12.8119 10.5025 13.3256 10.1225L12.4335 8.9166ZM22.9734 2.9857C23.6394 2.49304 23.78 1.55374 23.2873 0.887731C22.7946 0.221721 21.8553 0.0811987 21.1893 0.573866L22.9734 2.9857ZM1.15267 3.01787L11.5867 10.1547L13.2803 7.67851L2.84636 0.541701L1.15267 3.01787ZM13.3256 10.1225L22.9734 2.9857L21.1893 0.573866L11.5414 7.71068L13.3256 10.1225Z" fill="black"/>
</svg>
