<svg width="24" height="11" viewBox="0 0 24 11" fill="none" xmlns="http://www.w3.org/2000/svg">
<path d="M20.8211 10.134C21.5049 10.6017 22.4384 10.4265 22.9061 9.74272C23.3738 9.05894 23.1986 8.12549 22.5148 7.65779L20.8211 10.134ZM11.234 1.75906L12.0808 0.520975C11.5535 0.160281 10.8556 0.173191 10.3419 0.553141L11.234 1.75906ZM0.694054 7.68995C0.0280438 8.18262 -0.11248 9.12192 0.380188 9.78793C0.872856 10.4539 1.81215 10.5945 2.47816 10.1018L0.694054 7.68995ZM22.5148 7.65779L12.0808 0.520975L10.3871 2.99714L20.8211 10.134L22.5148 7.65779ZM10.3419 0.553141L0.694054 7.68995L2.47816 10.1018L12.126 2.96498L10.3419 0.553141Z" fill="#FFDE17"/>
</svg>
