<svg width="24" height="11" viewBox="0 0 24 11" fill="none" xmlns="http://www.w3.org/2000/svg">
<path d="M2.45915 0.965956C1.77537 0.498256 0.84192 0.67342 0.37422 1.3572C-0.0934795 2.04097 0.0816842 2.97443 0.765459 3.44212L2.45915 0.965956ZM12.0463 9.34085L11.1995 10.5789C11.7268 10.9396 12.4247 10.9267 12.9383 10.5468L12.0463 9.34085ZM22.5862 3.40996C23.2522 2.91729 23.3928 1.978 22.9001 1.31199C22.4074 0.645976 21.4681 0.505454 20.8021 0.998122L22.5862 3.40996ZM0.765459 3.44212L11.1995 10.5789L12.8931 8.10277L2.45915 0.965956L0.765459 3.44212ZM12.9383 10.5468L22.5862 3.40996L20.8021 0.998122L11.1542 8.13493L12.9383 10.5468Z" fill="black"/>
</svg>
