<svg width="24" height="11" viewBox="0 0 24 11" fill="none" xmlns="http://www.w3.org/2000/svg">
<path d="M2.43327 0.821608C1.7495 0.353908 0.816041 0.529072 0.348341 1.21285C-0.119358 1.89662 0.0558053 2.83008 0.73958 3.29778L2.43327 0.821608ZM12.0204 9.19651L11.1736 10.4346C11.7009 10.7953 12.3988 10.7824 12.9125 10.4024L12.0204 9.19651ZM22.5603 3.26561C23.2264 2.77294 23.3669 1.83365 22.8742 1.16764C22.3815 0.501628 21.4422 0.361106 20.7762 0.853773L22.5603 3.26561ZM0.73958 3.29778L11.1736 10.4346L12.8673 7.95842L2.43327 0.821608L0.73958 3.29778ZM12.9125 10.4024L22.5603 3.26561L20.7762 0.853773L11.1284 7.99059L12.9125 10.4024Z" fill="black"/>
</svg>
