<svg width="24" height="12" viewBox="0 0 24 12" fill="none" xmlns="http://www.w3.org/2000/svg">
<path d="M2.55241 1.24873C1.86864 0.781032 0.935182 0.956196 0.467482 1.63997C-0.000217795 2.32375 0.174946 3.2572 0.858721 3.7249L2.55241 1.24873ZM12.1396 9.62363L11.2927 10.8617C11.82 11.2224 12.518 11.2095 13.0316 10.8295L12.1396 9.62363ZM22.6795 3.69274C23.3455 3.20007 23.486 2.26077 22.9933 1.59476C22.5007 0.928752 21.5614 0.78823 20.8954 1.2809L22.6795 3.69274ZM0.858721 3.7249L11.2927 10.8617L12.9864 8.38555L2.55241 1.24873L0.858721 3.7249ZM13.0316 10.8295L22.6795 3.69274L20.8954 1.2809L11.2475 8.41771L13.0316 10.8295Z" fill="black"/>
</svg>
