<svg width="24" height="12" viewBox="0 0 24 12" fill="none" xmlns="http://www.w3.org/2000/svg">
<path d="M20.9408 10.8719C21.6245 11.3396 22.558 11.1645 23.0257 10.4807C23.4934 9.79692 23.3182 8.86347 22.6344 8.39577L20.9408 10.8719ZM11.3536 2.49704L12.2005 1.25895C11.6731 0.898257 10.9752 0.911167 10.4616 1.29112L11.3536 2.49704ZM0.813683 8.42793C0.147673 8.9206 0.00714872 9.85989 0.499817 10.5259C0.992485 11.1919 1.93178 11.3324 2.59779 10.8398L0.813683 8.42793ZM22.6344 8.39577L12.2005 1.25895L10.5068 3.73512L20.9408 10.8719L22.6344 8.39577ZM10.4616 1.29112L0.813683 8.42793L2.59779 10.8398L12.2457 3.70295L10.4616 1.29112Z" fill="#FFDE17"/>
</svg>
